Coordinates
version=1
nRows=29
nColumns=24
inDegrees=yes

Units are S.I. units (second, meters, Newtons, ...)
Angles are in degrees.

endheader
time	pelvis_tilt	pelvis_list	pelvis_rotation	pelvis_tx	pelvis_ty	pelvis_tz	hip_flexion_r	hip_adduction_r	hip_rotation_r	knee_angle_r	ankle_angle_r	subtalar_angle_r	mtp_angle_r	hip_flexion_l	hip_adduction_l	hip_rotation_l	knee_angle_l	ankle_angle_l	subtalar_angle_l	mtp_angle_l	lumbar_extension	lumbar_bending	lumbar_rotation
      6.08000000	     42.35429341	      1.46391275	     -0.50358629	     -0.82017753	      1.01944940	     -0.28778250	     15.46748675	     -8.94327881	      7.97684039	    -41.46695408	    -11.15133857	     12.76933869	      0.00000000	     17.64609353	    -13.61514650	     -1.08798569	    -60.87849037	    -22.87015923	     16.48653836	      0.00000000	    -33.71840514	     -9.54314022	      2.54034900
      6.09000000	     42.34447008	      1.47540757	     -0.49561188	     -0.82015612	      1.01945189	     -0.28778493	     15.48800255	     -8.96838083	      7.99002960	    -41.69249466	    -11.13137901	     12.80871479	      0.00000000	     17.65522535	    -13.60176112	     -1.08691666	    -60.86484074	    -22.87436065	     16.48906844	      0.00000000	    -33.71389410	     -9.55509502	      2.54873094
      6.10000000	     42.34675143	      1.48245580	     -0.48819466	     -0.82012016	      1.01946730	     -0.28778180	     15.49251079	     -8.98429550	      8.00443017	    -41.94901255	    -11.11148597	     12.85610543	      0.00000000	     17.64756575	    -13.59552189	     -1.09136232	    -60.84775166	    -22.87582817	     16.48455064	      0.00000000	    -33.72066466	     -9.56313223	      2.56424722
      6.11000000	     42.36766295	      1.47915337	     -0.48718741	     -0.82009790	      1.01950196	     -0.28777843	     15.47308073	     -8.98819256	      8.01577187	    -42.23077789	    -11.08966897	     12.89428333	      0.00000000	     17.61487458	    -13.59904296	     -1.09919431	    -60.82867478	    -22.87508866	     16.47422320	      0.00000000	    -33.74977560	     -9.56111340	      2.58583647
      6.12000000	     42.41580783	      1.46077949	     -0.49803733	     -0.82012988	      1.01955587	     -0.28779636	     15.42451095	     -8.97720045	      8.02282342	    -42.53371583	    -11.06867138	     12.91411424	      0.00000000	     17.55161894	    -13.61371799	     -1.10784341	    -60.81019440	    -22.87327184	     16.46021719	      0.00000000	    -33.81387996	     -9.54318357	      2.61574057
      6.13000000	     42.49985133	      1.42449705	     -0.52412185	     -0.82025700	      1.01961732	     -0.28786821	     15.34432441	     -8.94951199	      8.02849529	    -42.85631874	    -11.05562893	     12.91769719	      0.00000000	     17.45499501	    -13.63994429	     -1.11564024	    -60.79580088	    -22.87150951	     16.44462388	      0.00000000	    -33.92374728	     -9.50568516	      2.65884127
      6.14000000	     42.62412174	      1.36978489	     -0.56591252	     -0.82050519	      1.01966571	     -0.28799989	     15.23233409	     -8.90582096	      8.03897998	    -43.19977545	    -11.05915829	     12.91664246	      0.00000000	     17.32431114	    -13.67725086	     -1.12254683	    -60.78903826	    -22.87052393	     16.42882540	      0.00000000	    -34.08445408	     -9.44853147	      2.72034471
      6.15000000	     42.78597891	      1.29963411	     -0.62155634	     -0.82084441	      1.01967865	     -0.28816663	     15.09146788	     -8.84903792	      8.06092993	    -43.56610033	    -11.08511647	     12.92665550	      0.00000000	     17.16102786	    -13.72409984	     -1.12997167	    -60.79179886	    -22.87055584	     16.41330504	      0.00000000	    -34.29287740	     -9.37539420	      2.80299548
      6.16000000	     42.97607058	      1.22006002	     -0.68859207	     -0.82120243	      1.01965451	     -0.28834674	     14.92895101	     -8.78340502	      8.09807955	    -43.95535453	    -11.13295072	     12.96072394	      0.00000000	     16.96984367	    -13.77730814	     -1.13992025	    -60.80254210	    -22.87155070	     16.39789933	      0.00000000	    -34.53757107	     -9.29277814	      2.90512502
      6.17000000	     43.18009045	      1.13749617	     -0.76500066	     -0.82153276	      1.01963411	     -0.28854084	     14.75557108	     -8.71420932	      8.14904156	    -44.36464204	    -11.19442727	     13.02349018	      0.00000000	     16.75996372	    -13.83191748	     -1.15392170	    -60.81578730	    -22.87340396	     16.38225929	      0.00000000	    -34.80095147	     -9.20848617	      3.02034779
      6.18000000	     43.38151856	      1.05718466	     -0.84784360	     -0.82184998	      1.01966205	     -0.28875100	     14.58291402	     -8.64720550	      8.20714201	    -44.78990666	    -11.25552263	     13.10887098	      0.00000000	     16.54499182	    -13.88246792	     -1.17220652	    -60.82382356	    -22.87612200	     16.36625800	      0.00000000	    -35.06274770	     -9.13000730	      3.13893514
      6.19000000	     43.56517451	      0.98355784	     -0.93060771	     -0.82219166	      1.01973074	     -0.28895257	     14.42070040	     -8.58735451	      8.26238691	    -45.22889605	    -11.30092611	     13.20179756	      0.00000000	     16.34039199	    -13.92502681	     -1.19358948	    -60.82029683	    -22.87984712	     16.35019069	      0.00000000	    -35.30373588	     -9.06323243	      3.25028713
      6.20000000	     43.72045199	      0.92105862	     -1.00274848	     -0.82254249	      1.01980570	     -0.28912005	     14.27576988	     -8.53750917	      8.30482718	    -45.68296884	    -11.31952194	     13.28345082	      0.00000000	     16.15948244	    -13.95853074	     -1.21595117	    -60.80367809	    -22.88472405	     16.33475220	      0.00000000	    -35.50926663	     -9.01164572	      3.34565993
      6.21000000	     43.84300315	      0.87320231	     -1.05313819	     -0.82282418	      1.01987933	     -0.28924328	     14.15264341	     -8.49828706	      8.32802985	    -46.15664555	    -11.30882745	     13.33792071	      0.00000000	     16.01047514	    -13.98467182	     -1.23667716	    -60.77827551	    -22.89063386	     16.32086079	      0.00000000	    -35.67189342	     -8.97583218	      3.42025453
      6.22000000	     43.93439769	      0.84013812	     -1.07585648	     -0.82296927	      1.01997011	     -0.28929974	     14.05498091	     -8.46915156	      8.33109055	    -46.65534280	    -11.27652660	     13.35774045	      0.00000000	     15.89612530	    -14.00619626	     -1.25282878	    -60.75230252	    -22.89695783	     16.30943714	      0.00000000	    -35.79195719	     -8.95325502	      3.47393140
      6.23000000	     43.99857019	      0.81859566	     -1.07502454	     -0.82300644	      1.02007028	     -0.28928768	     13.98645353	     -8.44877292	      8.31774259	    -47.18305022	    -11.23799181	     13.34642392	      0.00000000	     15.81554629	    -14.02455977	     -1.26134681	    -60.73452207	    -22.90261284	     16.30126156	      0.00000000	    -35.87532779	     -8.93879338	      3.51021322
      6.24000000	     44.03783183	      0.80466160	     -1.06358833	     -0.82302781	      1.02013020	     -0.28926371	     13.95252738	     -8.43500935	      8.29374026	    -47.74059458	    -11.21021480	     13.31722939	      0.00000000	     15.76701574	    -14.03850591	     -1.25956668	    -60.73124067	    -22.90644964	     16.29698594	      0.00000000	    -35.92861530	     -8.92650467	      3.53383793
      6.25000000	     44.05204792	      0.79546409	     -1.05483792	     -0.82304395	      1.02012987	     -0.28927078	     13.96356666	     -8.42680798	      8.26474613	    -48.32460812	    -11.20436875	     13.28853947	      0.00000000	     15.75130424	    -14.04418861	     -1.24608552	    -60.74435309	    -22.90778995	     16.29726985	      0.00000000	    -35.95344008	     -8.91239331	      3.54777417
      6.26000000	     44.03661553	      0.78992354	     -1.05423526	     -0.82300717	      1.02009415	     -0.28929967	     14.03229891	     -8.42671241	      8.23372684	    -48.92934470	    -11.22023384	     13.27733866	      0.00000000	     15.77486491	    -14.03660948	     -1.22160254	    -60.77049494	    -22.90671913	     16.30290517	      0.00000000	    -35.94222533	     -8.89731858	      3.55093198
      6.27000000	     43.97998197	      0.79045659	     -1.05609644	     -0.82294625	      1.02003418	     -0.28935112	     14.16637610	     -8.44118621	      8.19816403	    -49.55046118	    -11.24505220	     13.29297848	      0.00000000	     15.85021098	    -14.01202322	     -1.18914458	    -60.80183722	    -22.90397368	     16.31477008	      0.00000000	    -35.87790367	     -8.88865819	      3.53761960
      6.28000000	     43.86652877	      0.80472709	     -1.04343780	     -0.82291169	      1.01994901	     -0.28943961	     14.36447276	     -8.47805961	      8.15018860	    -50.18674684	    -11.25741709	     13.33381101	      0.00000000	     15.99087028	    -13.97061634	     -1.15329467	    -60.82905237	    -22.90059102	     16.33350780	      0.00000000	    -35.73895566	     -8.89914973	      3.49925667
      6.29000000	     43.68306667	      0.84557309	     -0.99310170	     -0.82283714	      1.01985865	     -0.28950867	     14.61658087	     -8.54172978	      8.07994165	    -50.83860214	    -11.23475327	     13.38859160	      0.00000000	     16.20279757	    -13.91762064	     -1.11856704	    -60.84530287	    -22.89755337	     16.35898715	      0.00000000	    -35.50926978	     -8.94212191	      3.42805303
      6.30000000	     43.42724783	      0.92519934	     -0.88813810	     -0.82251232	      1.01982256	     -0.28939038	     14.90641539	     -8.62966005	      7.98071718	    -51.50417731	    -11.16166080	     13.44218325	      0.00000000	     16.47807124	    -13.86075054	     -1.08786283	    -60.84863607	    -22.89550969	     16.38980669	      0.00000000	    -35.18943905	     -9.02440688	      3.32143474
      6.31000000	     43.11637547	      1.04314149	     -0.73197214	     -0.82176869	      1.01989682	     -0.28895067	     15.21522340	     -8.73400343	      7.85426626	    -52.17531170	    -11.03620274	     13.48276730	      0.00000000	     16.79470521	    -13.80487276	     -1.06204785	    -60.84138726	    -22.89457682	     16.42312983	      0.00000000	    -34.80374897	     -9.14067347	      3.18535722
      6.32000000	     42.78873261	      1.17881754	     -0.55343398	     -0.82080670	      1.02002247	     -0.28834094	     15.52447187	     -8.84615106	      7.71304757	    -52.83682610	    -10.87190365	     13.50729173	      0.00000000	     17.12106061	    -13.74866937	     -1.04074453	    -60.82793304	    -22.89427594	     16.45495060	      0.00000000	    -34.39754395	     -9.27335601	      3.03479505
      6.33000000	     42.49128500	      1.30101425	     -0.39446627	     -0.82008859	      1.02006459	     -0.28790698	     15.81585605	     -8.95881746	      7.57676567	    -53.47074527	    -10.69451088	     13.52301577	      0.00000000	     17.42147727	    -13.68729265	     -1.02349437	    -60.81296941	    -22.89367439	     16.48069239	      0.00000000	    -34.02439041	     -9.39925283	      2.89074426
      6.34000000	     42.26014327	      1.38803064	     -0.28749790	     -0.81979598	      1.01998435	     -0.28778465	     16.07015881	     -9.06515600	      7.46452473	    -54.06300074	    -10.53432527	     13.54453880	      0.00000000	     17.66270398	    -13.61907737	     -1.01044631	    -60.80065293	    -22.89170199	     16.49602716	      0.00000000	    -33.72904891	     -9.49925030	      2.77448441
      6.35000000	     42.10880677	      1.43889325	     -0.24080857	     -0.81973506	      1.01986447	     -0.28784786	     16.26837349	     -9.15824969	      7.38715255	    -54.60795362	    -10.41653748	     13.58721574	      0.00000000	     17.82220928	    -13.54962526	     -1.00239471	    -60.79350182	    -22.88753767	     16.49792058	      0.00000000	    -33.53489428	     -9.56532658	      2.70100113
      6.36000000	     42.03142510	      1.46732021	     -0.23982883	     -0.81970284	      1.01980353	     -0.28795970	     16.39729572	     -9.23285812	      7.34388025	    -55.10749957	    -10.35289926	     13.65948105	      0.00000000	     17.89561072	    -13.48889676	     -1.00036934	    -60.79116968	    -22.88101366	     16.48580597	      0.00000000	    -33.44083558	     -9.60109532	      2.67408983
